<mxfile host="app.diagrams.net" modified="2024-01-30T09:08:27.680Z" agent="Mozilla/5.0 (Windows NT 10.0; Win64; x64) AppleWebKit/537.36 (KHTML, like Gecko) Chrome/121.0.0.0 Safari/537.36" etag="_lu2J2yJwaQH10nU4sFV" version="23.0.2" type="github">
  <diagram name="Page-1" id="nJylnroNrzdKfBT1kNII">
    <mxGraphModel dx="1730" dy="520" grid="1" gridSize="10" guides="1" tooltips="1" connect="1" arrows="1" fold="1" page="1" pageScale="1" pageWidth="850" pageHeight="1100" math="0" shadow="0">
      <root>
        <mxCell id="0" />
        <mxCell id="1" parent="0" />
        <mxCell id="NydhHh0NSFJVFC-VD1bs-7" value="" style="edgeStyle=orthogonalEdgeStyle;rounded=1;orthogonalLoop=1;jettySize=auto;html=1;curved=0;strokeWidth=3;fillColor=#d80073;strokeColor=#A50040;" edge="1" parent="1" source="NydhHh0NSFJVFC-VD1bs-1" target="NydhHh0NSFJVFC-VD1bs-6">
          <mxGeometry relative="1" as="geometry" />
        </mxCell>
        <mxCell id="NydhHh0NSFJVFC-VD1bs-1" value="&lt;b&gt;&lt;font style=&quot;font-size: 22px;&quot;&gt;Tally Desktop Application&lt;/font&gt;&lt;/b&gt;" style="ellipse;whiteSpace=wrap;html=1;aspect=fixed;fillColor=#d80073;fontColor=#ffffff;strokeColor=#A50040;shadow=1;gradientColor=#024036;rounded=1;" vertex="1" parent="1">
          <mxGeometry x="335" y="100" width="180" height="180" as="geometry" />
        </mxCell>
        <mxCell id="NydhHh0NSFJVFC-VD1bs-8" style="edgeStyle=orthogonalEdgeStyle;rounded=1;orthogonalLoop=1;jettySize=auto;html=1;curved=0;strokeWidth=3;fillColor=#d80073;strokeColor=#A50040;entryX=0.5;entryY=0;entryDx=0;entryDy=0;exitX=0.5;exitY=1;exitDx=0;exitDy=0;" edge="1" parent="1" source="NydhHh0NSFJVFC-VD1bs-6" target="NydhHh0NSFJVFC-VD1bs-9">
          <mxGeometry relative="1" as="geometry">
            <mxPoint x="-310" y="560" as="targetPoint" />
            <mxPoint x="55" y="500" as="sourcePoint" />
          </mxGeometry>
        </mxCell>
        <mxCell id="NydhHh0NSFJVFC-VD1bs-6" value="&lt;font style=&quot;font-size: 23px;&quot;&gt;&lt;b&gt;Every 30 Second&lt;/b&gt;&lt;/font&gt;" style="rounded=1;whiteSpace=wrap;html=1;fillColor=#d80073;strokeColor=#A50040;fontColor=#ffffff;shadow=1;gradientColor=#024036;" vertex="1" parent="1">
          <mxGeometry x="275" y="390" width="300" height="90" as="geometry" />
        </mxCell>
        <mxCell id="NydhHh0NSFJVFC-VD1bs-15" style="edgeStyle=orthogonalEdgeStyle;rounded=1;orthogonalLoop=1;jettySize=auto;html=1;entryX=0.5;entryY=0;entryDx=0;entryDy=0;curved=0;fillColor=#d80073;strokeColor=#A50040;strokeWidth=2;" edge="1" parent="1" source="NydhHh0NSFJVFC-VD1bs-9" target="NydhHh0NSFJVFC-VD1bs-14">
          <mxGeometry relative="1" as="geometry" />
        </mxCell>
        <mxCell id="NydhHh0NSFJVFC-VD1bs-18" style="edgeStyle=orthogonalEdgeStyle;rounded=1;orthogonalLoop=1;jettySize=auto;html=1;entryX=0.5;entryY=0;entryDx=0;entryDy=0;fillColor=#d80073;strokeColor=#A50040;strokeWidth=2;" edge="1" parent="1" source="NydhHh0NSFJVFC-VD1bs-9" target="NydhHh0NSFJVFC-VD1bs-16">
          <mxGeometry relative="1" as="geometry" />
        </mxCell>
        <mxCell id="NydhHh0NSFJVFC-VD1bs-21" style="edgeStyle=orthogonalEdgeStyle;rounded=1;orthogonalLoop=1;jettySize=auto;html=1;entryX=0.5;entryY=0;entryDx=0;entryDy=0;fillColor=#d80073;strokeColor=#A50040;strokeWidth=2;" edge="1" parent="1" source="NydhHh0NSFJVFC-VD1bs-9" target="NydhHh0NSFJVFC-VD1bs-19">
          <mxGeometry relative="1" as="geometry" />
        </mxCell>
        <mxCell id="NydhHh0NSFJVFC-VD1bs-27" style="edgeStyle=orthogonalEdgeStyle;rounded=1;orthogonalLoop=1;jettySize=auto;html=1;entryX=0.5;entryY=0;entryDx=0;entryDy=0;curved=0;fillColor=#d80073;strokeColor=#A50040;strokeWidth=2;" edge="1" parent="1" source="NydhHh0NSFJVFC-VD1bs-9" target="NydhHh0NSFJVFC-VD1bs-26">
          <mxGeometry relative="1" as="geometry" />
        </mxCell>
        <mxCell id="NydhHh0NSFJVFC-VD1bs-9" value="&lt;font size=&quot;1&quot; style=&quot;&quot;&gt;&lt;b style=&quot;font-size: 18px;&quot;&gt;Tally Job&lt;span style=&quot;white-space: pre;&quot;&gt;&#x9;&lt;/span&gt;&lt;/b&gt;&lt;/font&gt;" style="rounded=1;whiteSpace=wrap;html=1;fillColor=#d80073;strokeColor=#A50040;fontColor=#ffffff;shadow=1;gradientColor=#024036;" vertex="1" parent="1">
          <mxGeometry x="-270" y="550" width="190" height="60" as="geometry" />
        </mxCell>
        <mxCell id="NydhHh0NSFJVFC-VD1bs-10" style="edgeStyle=orthogonalEdgeStyle;rounded=1;orthogonalLoop=1;jettySize=auto;html=1;curved=0;strokeWidth=3;fillColor=#d80073;strokeColor=#A50040;exitX=0.5;exitY=1;exitDx=0;exitDy=0;" edge="1" parent="1" source="NydhHh0NSFJVFC-VD1bs-6" target="NydhHh0NSFJVFC-VD1bs-11">
          <mxGeometry relative="1" as="geometry">
            <mxPoint x="220" y="540" as="targetPoint" />
            <mxPoint x="415" y="460" as="sourcePoint" />
          </mxGeometry>
        </mxCell>
        <mxCell id="NydhHh0NSFJVFC-VD1bs-33" style="edgeStyle=orthogonalEdgeStyle;rounded=1;orthogonalLoop=1;jettySize=auto;html=1;entryX=0.5;entryY=0;entryDx=0;entryDy=0;curved=0;strokeWidth=2;fillColor=#d80073;strokeColor=#A50040;" edge="1" parent="1" source="NydhHh0NSFJVFC-VD1bs-11" target="NydhHh0NSFJVFC-VD1bs-32">
          <mxGeometry relative="1" as="geometry" />
        </mxCell>
        <mxCell id="NydhHh0NSFJVFC-VD1bs-11" value="&lt;font size=&quot;1&quot; style=&quot;&quot;&gt;&lt;b style=&quot;font-size: 18px;&quot;&gt;ERPNEXT Job&lt;/b&gt;&lt;/font&gt;" style="rounded=1;whiteSpace=wrap;html=1;fillColor=#d80073;strokeColor=#A50040;fontColor=#ffffff;shadow=1;gradientColor=#024036;" vertex="1" parent="1">
          <mxGeometry x="580" y="530" width="190" height="60" as="geometry" />
        </mxCell>
        <mxCell id="NydhHh0NSFJVFC-VD1bs-25" style="edgeStyle=orthogonalEdgeStyle;rounded=1;orthogonalLoop=1;jettySize=auto;html=1;entryX=0.75;entryY=1;entryDx=0;entryDy=0;fillColor=#d80073;strokeColor=#A50040;strokeWidth=2;curved=0;" edge="1" parent="1" source="NydhHh0NSFJVFC-VD1bs-13" target="NydhHh0NSFJVFC-VD1bs-19">
          <mxGeometry relative="1" as="geometry">
            <Array as="points">
              <mxPoint x="60" y="1015" />
              <mxPoint x="60" y="840" />
              <mxPoint x="83" y="840" />
            </Array>
          </mxGeometry>
        </mxCell>
        <mxCell id="NydhHh0NSFJVFC-VD1bs-13" value="&lt;font style=&quot;font-size: 20px;&quot;&gt;Local Database&lt;/font&gt;" style="shape=datastore;whiteSpace=wrap;html=1;fillColor=#f2eef0;fontColor=#ffffff;strokeColor=#A50040;gradientColor=#055f6b;rounded=1;" vertex="1" parent="1">
          <mxGeometry x="-60" y="950" width="110" height="130" as="geometry" />
        </mxCell>
        <mxCell id="NydhHh0NSFJVFC-VD1bs-47" style="edgeStyle=orthogonalEdgeStyle;rounded=1;orthogonalLoop=1;jettySize=auto;html=1;entryX=0;entryY=0.7;entryDx=0;entryDy=0;curved=0;fillColor=#d80073;strokeColor=#A50040;strokeWidth=2;" edge="1" parent="1" source="NydhHh0NSFJVFC-VD1bs-14" target="NydhHh0NSFJVFC-VD1bs-13">
          <mxGeometry relative="1" as="geometry">
            <Array as="points">
              <mxPoint x="-385" y="910" />
              <mxPoint x="-175" y="910" />
              <mxPoint x="-175" y="1041" />
            </Array>
          </mxGeometry>
        </mxCell>
        <mxCell id="NydhHh0NSFJVFC-VD1bs-14" value="&lt;b style=&quot;&quot;&gt;&lt;font style=&quot;font-size: 16px;&quot;&gt;Sync Tally Payments&lt;/font&gt;&lt;/b&gt;" style="rounded=1;whiteSpace=wrap;html=1;fillColor=#d80073;strokeColor=#A50040;fontColor=#ffffff;shadow=1;gradientColor=#024036;" vertex="1" parent="1">
          <mxGeometry x="-480" y="660" width="190" height="60" as="geometry" />
        </mxCell>
        <mxCell id="NydhHh0NSFJVFC-VD1bs-48" style="edgeStyle=orthogonalEdgeStyle;rounded=1;orthogonalLoop=1;jettySize=auto;html=1;entryX=0;entryY=0.5;entryDx=0;entryDy=0;curved=0;fillColor=#d80073;strokeColor=#A50040;strokeWidth=2;" edge="1" parent="1" source="NydhHh0NSFJVFC-VD1bs-16" target="NydhHh0NSFJVFC-VD1bs-13">
          <mxGeometry relative="1" as="geometry">
            <Array as="points">
              <mxPoint x="-175" y="770" />
              <mxPoint x="-160" y="770" />
              <mxPoint x="-160" y="840" />
              <mxPoint x="-130" y="840" />
              <mxPoint x="-130" y="1015" />
            </Array>
          </mxGeometry>
        </mxCell>
        <mxCell id="NydhHh0NSFJVFC-VD1bs-16" value="&lt;b style=&quot;&quot;&gt;&lt;font style=&quot;font-size: 16px;&quot;&gt;Sync Tally Sales Orders&lt;/font&gt;&lt;/b&gt;" style="rounded=1;whiteSpace=wrap;html=1;fillColor=#d80073;strokeColor=#A50040;fontColor=#ffffff;shadow=1;gradientColor=#024036;" vertex="1" parent="1">
          <mxGeometry x="-270" y="660" width="190" height="60" as="geometry" />
        </mxCell>
        <mxCell id="NydhHh0NSFJVFC-VD1bs-24" style="edgeStyle=orthogonalEdgeStyle;rounded=1;orthogonalLoop=1;jettySize=auto;html=1;curved=0;strokeWidth=2;fillColor=#d80073;strokeColor=#A50040;" edge="1" parent="1" source="NydhHh0NSFJVFC-VD1bs-19" target="NydhHh0NSFJVFC-VD1bs-13">
          <mxGeometry relative="1" as="geometry">
            <Array as="points">
              <mxPoint x="35" y="860" />
              <mxPoint y="860" />
            </Array>
          </mxGeometry>
        </mxCell>
        <mxCell id="NydhHh0NSFJVFC-VD1bs-19" value="&lt;b style=&quot;&quot;&gt;&lt;font style=&quot;font-size: 16px;&quot;&gt;Sync DB Sales Orders&lt;/font&gt;&lt;/b&gt;" style="rounded=1;whiteSpace=wrap;html=1;fillColor=#d80073;strokeColor=#A50040;fontColor=#ffffff;shadow=1;gradientColor=#024036;" vertex="1" parent="1">
          <mxGeometry x="-60" y="660" width="190" height="60" as="geometry" />
        </mxCell>
        <mxCell id="NydhHh0NSFJVFC-VD1bs-29" style="edgeStyle=orthogonalEdgeStyle;rounded=1;orthogonalLoop=1;jettySize=auto;html=1;entryX=1;entryY=0.7;entryDx=0;entryDy=0;exitX=0.5;exitY=1;exitDx=0;exitDy=0;fillColor=#d80073;strokeColor=#A50040;strokeWidth=2;" edge="1" parent="1" source="NydhHh0NSFJVFC-VD1bs-26" target="NydhHh0NSFJVFC-VD1bs-13">
          <mxGeometry relative="1" as="geometry">
            <mxPoint x="190" y="760" as="sourcePoint" />
            <Array as="points">
              <mxPoint x="230" y="720" />
              <mxPoint x="230" y="1041" />
            </Array>
          </mxGeometry>
        </mxCell>
        <mxCell id="NydhHh0NSFJVFC-VD1bs-31" style="edgeStyle=orthogonalEdgeStyle;rounded=1;orthogonalLoop=1;jettySize=auto;html=1;entryX=0;entryY=0.5;entryDx=0;entryDy=0;curved=0;fillColor=#d80073;strokeColor=#A50040;strokeWidth=2;" edge="1" parent="1" source="NydhHh0NSFJVFC-VD1bs-26" target="NydhHh0NSFJVFC-VD1bs-28">
          <mxGeometry relative="1" as="geometry">
            <Array as="points">
              <mxPoint x="335" y="985" />
            </Array>
          </mxGeometry>
        </mxCell>
        <mxCell id="NydhHh0NSFJVFC-VD1bs-26" value="&lt;b style=&quot;&quot;&gt;&lt;font style=&quot;font-size: 16px;&quot;&gt;Sync Data In Catalyst&lt;/font&gt;&lt;/b&gt;" style="rounded=1;whiteSpace=wrap;html=1;fillColor=#d80073;strokeColor=#A50040;fontColor=#ffffff;shadow=1;gradientColor=#024036;" vertex="1" parent="1">
          <mxGeometry x="145" y="660" width="190" height="60" as="geometry" />
        </mxCell>
        <mxCell id="NydhHh0NSFJVFC-VD1bs-51" value="" style="edgeStyle=orthogonalEdgeStyle;rounded=1;orthogonalLoop=1;jettySize=auto;html=1;fillColor=#d80073;strokeColor=#A50040;strokeWidth=2;" edge="1" parent="1" source="NydhHh0NSFJVFC-VD1bs-28" target="NydhHh0NSFJVFC-VD1bs-50">
          <mxGeometry relative="1" as="geometry" />
        </mxCell>
        <mxCell id="NydhHh0NSFJVFC-VD1bs-28" value="&lt;font style=&quot;font-size: 20px;&quot;&gt;ZOHO&lt;br&gt;catalyst Data Store&lt;br&gt;&lt;/font&gt;" style="shape=datastore;whiteSpace=wrap;html=1;fillColor=#f2eef0;fontColor=#ffffff;strokeColor=#A50040;gradientColor=#055f6b;rounded=1;" vertex="1" parent="1">
          <mxGeometry x="355" y="900" width="140" height="170" as="geometry" />
        </mxCell>
        <mxCell id="NydhHh0NSFJVFC-VD1bs-30" style="edgeStyle=orthogonalEdgeStyle;rounded=1;orthogonalLoop=1;jettySize=auto;html=1;entryX=0.379;entryY=1.039;entryDx=0;entryDy=0;entryPerimeter=0;curved=0;fillColor=#d80073;strokeColor=#A50040;strokeWidth=2;" edge="1" parent="1" source="NydhHh0NSFJVFC-VD1bs-13" target="NydhHh0NSFJVFC-VD1bs-26">
          <mxGeometry relative="1" as="geometry" />
        </mxCell>
        <mxCell id="NydhHh0NSFJVFC-VD1bs-37" style="edgeStyle=orthogonalEdgeStyle;rounded=1;orthogonalLoop=1;jettySize=auto;html=1;entryX=0.5;entryY=1;entryDx=0;entryDy=0;curved=0;strokeWidth=2;fillColor=#d80073;strokeColor=#A50040;" edge="1" parent="1" source="NydhHh0NSFJVFC-VD1bs-32" target="NydhHh0NSFJVFC-VD1bs-36">
          <mxGeometry relative="1" as="geometry" />
        </mxCell>
        <mxCell id="NydhHh0NSFJVFC-VD1bs-32" value="&lt;b style=&quot;&quot;&gt;&lt;font style=&quot;font-size: 16px;&quot;&gt;Sync Sales Orders&lt;/font&gt;&lt;/b&gt;" style="rounded=1;whiteSpace=wrap;html=1;fillColor=#d80073;strokeColor=#A50040;fontColor=#ffffff;shadow=1;gradientColor=#024036;" vertex="1" parent="1">
          <mxGeometry x="480" y="650" width="190" height="60" as="geometry" />
        </mxCell>
        <mxCell id="NydhHh0NSFJVFC-VD1bs-34" style="edgeStyle=orthogonalEdgeStyle;rounded=1;orthogonalLoop=1;jettySize=auto;html=1;entryX=0.983;entryY=0.89;entryDx=0;entryDy=0;entryPerimeter=0;strokeWidth=2;fillColor=#d80073;strokeColor=#A50040;curved=0;" edge="1" parent="1" source="NydhHh0NSFJVFC-VD1bs-32" target="NydhHh0NSFJVFC-VD1bs-13">
          <mxGeometry relative="1" as="geometry">
            <Array as="points">
              <mxPoint x="575" y="770" />
              <mxPoint x="270" y="770" />
              <mxPoint x="270" y="1066" />
            </Array>
          </mxGeometry>
        </mxCell>
        <mxCell id="NydhHh0NSFJVFC-VD1bs-38" style="edgeStyle=orthogonalEdgeStyle;rounded=1;orthogonalLoop=1;jettySize=auto;html=1;entryX=0.5;entryY=1;entryDx=0;entryDy=0;curved=0;fillColor=#d80073;strokeColor=#A50040;strokeWidth=2;" edge="1" parent="1" source="NydhHh0NSFJVFC-VD1bs-36" target="NydhHh0NSFJVFC-VD1bs-32">
          <mxGeometry relative="1" as="geometry">
            <Array as="points">
              <mxPoint x="910" y="730" />
              <mxPoint x="575" y="730" />
            </Array>
          </mxGeometry>
        </mxCell>
        <mxCell id="NydhHh0NSFJVFC-VD1bs-36" value="&lt;font style=&quot;font-size: 20px;&quot;&gt;ERPNEXT&lt;br&gt;&lt;/font&gt;" style="shape=datastore;whiteSpace=wrap;html=1;fillColor=#f2eef0;fontColor=#ffffff;strokeColor=#A50040;gradientColor=#055f6b;rounded=1;" vertex="1" parent="1">
          <mxGeometry x="820" y="290" width="140" height="170" as="geometry" />
        </mxCell>
        <mxCell id="NydhHh0NSFJVFC-VD1bs-44" style="edgeStyle=orthogonalEdgeStyle;rounded=1;orthogonalLoop=1;jettySize=auto;html=1;entryX=0;entryY=0.5;entryDx=0;entryDy=0;curved=0;fillColor=#d80073;strokeColor=#A50040;strokeWidth=2;" edge="1" parent="1" source="NydhHh0NSFJVFC-VD1bs-39" target="NydhHh0NSFJVFC-VD1bs-14">
          <mxGeometry relative="1" as="geometry">
            <Array as="points">
              <mxPoint x="-590" y="490" />
              <mxPoint x="-570" y="490" />
              <mxPoint x="-570" y="680" />
              <mxPoint x="-480" y="680" />
            </Array>
          </mxGeometry>
        </mxCell>
        <mxCell id="NydhHh0NSFJVFC-VD1bs-39" value="&lt;font style=&quot;font-size: 20px;&quot;&gt;Tally Prime&lt;br&gt;&lt;/font&gt;" style="shape=datastore;whiteSpace=wrap;html=1;fillColor=#f2eef0;fontColor=#ffffff;strokeColor=#A50040;gradientColor=#055f6b;rounded=1;" vertex="1" parent="1">
          <mxGeometry x="-660" y="290" width="140" height="170" as="geometry" />
        </mxCell>
        <mxCell id="NydhHh0NSFJVFC-VD1bs-42" style="edgeStyle=orthogonalEdgeStyle;rounded=1;orthogonalLoop=1;jettySize=auto;html=1;entryX=0.436;entryY=1.006;entryDx=0;entryDy=0;entryPerimeter=0;curved=0;fillColor=#d80073;strokeColor=#A50040;strokeWidth=2;" edge="1" parent="1" source="NydhHh0NSFJVFC-VD1bs-14" target="NydhHh0NSFJVFC-VD1bs-39">
          <mxGeometry relative="1" as="geometry" />
        </mxCell>
        <mxCell id="NydhHh0NSFJVFC-VD1bs-45" style="edgeStyle=orthogonalEdgeStyle;rounded=1;orthogonalLoop=1;jettySize=auto;html=1;entryX=0.15;entryY=0.95;entryDx=0;entryDy=0;entryPerimeter=0;curved=0;fillColor=#d80073;strokeColor=#A50040;strokeWidth=2;" edge="1" parent="1" source="NydhHh0NSFJVFC-VD1bs-16" target="NydhHh0NSFJVFC-VD1bs-39">
          <mxGeometry relative="1" as="geometry">
            <Array as="points">
              <mxPoint x="-175" y="750" />
              <mxPoint x="-639" y="750" />
            </Array>
          </mxGeometry>
        </mxCell>
        <mxCell id="NydhHh0NSFJVFC-VD1bs-46" style="edgeStyle=orthogonalEdgeStyle;rounded=1;orthogonalLoop=1;jettySize=auto;html=1;entryX=0.402;entryY=0.994;entryDx=0;entryDy=0;entryPerimeter=0;exitX=0.283;exitY=0.982;exitDx=0;exitDy=0;exitPerimeter=0;fillColor=#d80073;strokeColor=#A50040;strokeWidth=2;" edge="1" parent="1" source="NydhHh0NSFJVFC-VD1bs-39" target="NydhHh0NSFJVFC-VD1bs-16">
          <mxGeometry relative="1" as="geometry">
            <Array as="points">
              <mxPoint x="-620" y="460" />
              <mxPoint x="-700" y="460" />
              <mxPoint x="-700" y="740" />
              <mxPoint x="-194" y="740" />
            </Array>
          </mxGeometry>
        </mxCell>
        <mxCell id="NydhHh0NSFJVFC-VD1bs-53" style="edgeStyle=orthogonalEdgeStyle;rounded=1;orthogonalLoop=1;jettySize=auto;html=1;entryX=0;entryY=0.5;entryDx=0;entryDy=0;strokeWidth=2;curved=0;fillColor=#d80073;strokeColor=#A50040;" edge="1" parent="1" source="NydhHh0NSFJVFC-VD1bs-50" target="NydhHh0NSFJVFC-VD1bs-52">
          <mxGeometry relative="1" as="geometry" />
        </mxCell>
        <mxCell id="NydhHh0NSFJVFC-VD1bs-50" value="&lt;b&gt;Every 1 Hour&lt;/b&gt;" style="ellipse;whiteSpace=wrap;html=1;fillColor=#f2eef0;strokeColor=#A50040;fontColor=#ffffff;gradientColor=#055f6b;rounded=1;" vertex="1" parent="1">
          <mxGeometry x="605" y="945" width="80" height="80" as="geometry" />
        </mxCell>
        <mxCell id="NydhHh0NSFJVFC-VD1bs-55" value="" style="edgeStyle=orthogonalEdgeStyle;rounded=1;orthogonalLoop=1;jettySize=auto;html=1;fillColor=#d80073;strokeColor=#A50040;strokeWidth=2;" edge="1" parent="1" source="NydhHh0NSFJVFC-VD1bs-52" target="NydhHh0NSFJVFC-VD1bs-54">
          <mxGeometry relative="1" as="geometry" />
        </mxCell>
        <mxCell id="NydhHh0NSFJVFC-VD1bs-52" value="&lt;b style=&quot;&quot;&gt;&lt;font style=&quot;font-size: 16px;&quot;&gt;Run Tally Cron Function&lt;/font&gt;&lt;/b&gt;" style="rounded=1;whiteSpace=wrap;html=1;fillColor=#d80073;strokeColor=#A50040;fontColor=#ffffff;shadow=1;gradientColor=#024036;" vertex="1" parent="1">
          <mxGeometry x="820" y="955" width="190" height="60" as="geometry" />
        </mxCell>
        <mxCell id="NydhHh0NSFJVFC-VD1bs-59" style="edgeStyle=orthogonalEdgeStyle;rounded=1;orthogonalLoop=1;jettySize=auto;html=1;fillColor=#d80073;strokeColor=#A50040;strokeWidth=2;" edge="1" parent="1" source="NydhHh0NSFJVFC-VD1bs-54" target="NydhHh0NSFJVFC-VD1bs-58">
          <mxGeometry relative="1" as="geometry" />
        </mxCell>
        <mxCell id="NydhHh0NSFJVFC-VD1bs-54" value="Fetch Sales Order, item and Taxes (Modified TIme after Last Sync Time)" style="whiteSpace=wrap;html=1;fillColor=#d80073;strokeColor=#A50040;fontColor=#ffffff;rounded=1;shadow=1;gradientColor=#024036;direction=west;" vertex="1" parent="1">
          <mxGeometry x="1125" y="922.5" width="145" height="125" as="geometry" />
        </mxCell>
        <mxCell id="NydhHh0NSFJVFC-VD1bs-56" style="edgeStyle=orthogonalEdgeStyle;rounded=1;orthogonalLoop=1;jettySize=auto;html=1;entryX=0.85;entryY=0.95;entryDx=0;entryDy=0;entryPerimeter=0;curved=0;fillColor=#d80073;strokeColor=#A50040;" edge="1" parent="1" source="NydhHh0NSFJVFC-VD1bs-54" target="NydhHh0NSFJVFC-VD1bs-28">
          <mxGeometry relative="1" as="geometry">
            <Array as="points">
              <mxPoint x="1198" y="1080" />
              <mxPoint x="810" y="1080" />
              <mxPoint x="810" y="1061" />
            </Array>
          </mxGeometry>
        </mxCell>
        <mxCell id="NydhHh0NSFJVFC-VD1bs-57" style="edgeStyle=orthogonalEdgeStyle;rounded=1;orthogonalLoop=1;jettySize=auto;html=1;entryX=0.388;entryY=-0.016;entryDx=0;entryDy=0;entryPerimeter=0;curved=0;strokeWidth=2;fillColor=#d80073;strokeColor=#A50040;" edge="1" parent="1" source="NydhHh0NSFJVFC-VD1bs-28" target="NydhHh0NSFJVFC-VD1bs-54">
          <mxGeometry relative="1" as="geometry">
            <Array as="points">
              <mxPoint x="425" y="1090" />
              <mxPoint x="1214" y="1090" />
            </Array>
          </mxGeometry>
        </mxCell>
        <mxCell id="NydhHh0NSFJVFC-VD1bs-58" value="&lt;font style=&quot;font-size: 20px;&quot;&gt;ZOHO&lt;br&gt;Analytics&lt;br&gt;&lt;/font&gt;" style="shape=datastore;whiteSpace=wrap;html=1;fillColor=#f2eef0;fontColor=#ffffff;strokeColor=#A50040;gradientColor=#055f6b;rounded=1;" vertex="1" parent="1">
          <mxGeometry x="1127.5" y="670" width="140" height="170" as="geometry" />
        </mxCell>
      </root>
    </mxGraphModel>
  </diagram>
</mxfile>
